<svg xmlns="http://www.w3.org/2000/svg" viewBox="0 0 256.02 267"><title>google-chat-logo</title><path d="M186.1,266.51V179.77H148.2A20.21,20.21,0,0,0,128,200v179.4a10.1,10.1,0,0,0,17.25,7.14l41.7-41.69H305.69a20.21,20.21,0,0,0,20.21-20.21v-37.9H206.31A20.21,20.21,0,0,1,186.1,266.51Z" transform="translate(-127.99 -122.5)" style="fill:#00ac47"/><path d="M363.8,122.5H206.31a20.21,20.21,0,0,0-20.21,20.21v37.06H305.69A20.21,20.21,0,0,1,325.9,200v86.74h37.9A20.21,20.21,0,0,0,384,266.51V142.71A20.21,20.21,0,0,0,363.8,122.5Z" transform="translate(-127.99 -122.5)" style="fill:#5bb974"/><path d="M305.69,179.77H186.1v86.74a20.21,20.21,0,0,0,20.21,20.21H325.9V200A20.21,20.21,0,0,0,305.69,179.77Z" transform="translate(-127.99 -122.5)" style="fill:#00832d"/></svg>